<?xml version="1.0" encoding="UTF-8"?>
<svg version="1.1" xmlns="http://www.w3.org/2000/svg" width="295" height="227">
<path d="M0 0 C97.35 0 194.7 0 295 0 C295 74.91 295 149.82 295 227 C197.65 227 100.3 227 0 227 C0 152.09 0 77.18 0 0 Z " fill="#F5FDFE" transform="translate(0,0)"/>
<path d="M0 0 C1 4 1 4 0 13 C11.22 13 22.44 13 34 13 C33.34 11.35 32.68 9.7 32 8 C32.3125 5.875 32.3125 5.875 33 4 C33.33 3.01 33.66 2.02 34 1 C34.66 1 35.32 1 36 1 C38.60018816 4.90028225 38.15085514 8.47434569 38 13 C38.58007812 13.09796875 39.16015625 13.1959375 39.7578125 13.296875 C48.22604319 14.91785645 52.79448857 18.23117832 57.80078125 25.1953125 C59.94358756 28.41999171 60.13004992 30.38623932 60.14526367 34.24414062 C60.15164352 35.33867554 60.15802338 36.43321045 60.16459656 37.56091309 C60.16570938 38.74737427 60.1668222 39.93383545 60.16796875 41.15625 C60.17296135 42.97606384 60.17296135 42.97606384 60.17805481 44.8326416 C60.18312476 47.40160746 60.18546311 49.97057992 60.18530273 52.53955078 C60.18749085 56.48350788 60.20565065 60.42718613 60.22460938 64.37109375 C60.22754287 66.86197821 60.22952796 69.352864 60.23046875 71.84375 C60.23765427 73.03021118 60.24483978 74.21667236 60.25224304 75.43908691 C60.24916641 76.53362183 60.24608978 77.62815674 60.24291992 78.75585938 C60.24434494 79.72245483 60.24576996 80.68905029 60.24723816 81.68493652 C60 84 60 84 58 86 C52.70318243 80.79910066 47.5369189 75.57132773 42.7109375 69.9296875 C40.26036102 67.16579531 37.61958324 64.60995864 34.98828125 62.01953125 C32.38074806 59.37101522 29.95582517 56.5872252 27.54296875 53.76171875 C26.08919634 52.10184189 24.57858414 50.54066019 23 49 C25 45 25 45 35 35 C15.695 34.505 15.695 34.505 -4 34 C-3.505 53.305 -3.505 53.305 -3 73 C-0.36 70.36 2.28 67.72 5 65 C7.75 62.4375 7.75 62.4375 10 61 C12.74340073 61.22014944 13.8529356 61.86155025 15.8671875 63.7578125 C16.52976563 64.53898437 17.19234375 65.32015625 17.875 66.125 C18.65746094 67.02605469 19.43992188 67.92710938 20.24609375 68.85546875 C20.68034668 69.3561084 21.11459961 69.85674805 21.56201172 70.37255859 C24.28661303 73.45612266 27.11976128 76.43928314 29.9375 79.4375 C35.68463473 85.572178 41.3686771 91.75883337 47 98 C43.70279572 101.29720428 39.65869587 101.12197796 35.16894531 101.19287109 C34.2373761 101.20893402 33.30580688 101.22499695 32.3460083 101.24154663 C28.10047492 101.28641044 23.85509038 101.3270502 19.609375 101.35009766 C17.37684701 101.36664692 15.14437178 101.39392313 12.91210938 101.43212891 C9.67550467 101.48715693 6.44013575 101.50881066 3.203125 101.5234375 C2.21532043 101.54610687 1.22751587 101.56877625 0.20977783 101.59213257 C-7.2500396 101.56961483 -13.00925648 99.70716882 -18.55340576 94.55697632 C-24.92482118 87.35209514 -25.47696497 80.93008139 -25.50390625 71.69921875 C-25.51389145 70.50827103 -25.52387665 69.3173233 -25.53416443 68.09028625 C-25.54932748 65.57463039 -25.55639079 63.05891441 -25.5559082 60.54321289 C-25.56246028 56.71073045 -25.61694249 52.88085154 -25.67382812 49.04882812 C-25.68263276 46.59896715 -25.68858525 44.14909392 -25.69140625 41.69921875 C-25.7129628 40.56143478 -25.73451935 39.42365082 -25.75672913 38.25138855 C-25.69141106 30.6006942 -24.13526645 25.74375201 -19 20 C-13.90242363 15.16613873 -10.05307973 13.2518957 -3 13 C-3.05220703 11.84371094 -3.05220703 11.84371094 -3.10546875 10.6640625 C-3.13253906 9.66117188 -3.15960938 8.65828125 -3.1875 7.625 C-3.23970703 6.12839844 -3.23970703 6.12839844 -3.29296875 4.6015625 C-3.14794922 3.31378906 -3.14794922 3.31378906 -3 2 C-2.01 1.34 -1.02 0.68 0 0 Z " fill="#073571" transform="translate(129,54)"/>
<path d="M0 0 C2.54700409 1.33021671 3.942879 2.93776201 5.8046875 5.1328125 C6.58714844 6.03386719 7.36960938 6.93492188 8.17578125 7.86328125 C8.61003418 8.3639209 9.04428711 8.86456055 9.49169922 9.38037109 C12.21630053 12.46393516 15.04944878 15.44709564 17.8671875 18.4453125 C23.61432223 24.5799905 29.2983646 30.76664587 34.9296875 37.0078125 C31.63248322 40.30501678 27.58838337 40.12979046 23.09863281 40.20068359 C22.1670636 40.21674652 21.23549438 40.23280945 20.2756958 40.24935913 C16.03016242 40.29422294 11.78477788 40.3348627 7.5390625 40.35791016 C5.30653451 40.37445942 3.07405928 40.40173563 0.84179688 40.43994141 C-2.39480783 40.49496943 -5.63017675 40.51662316 -8.8671875 40.53125 C-9.85499207 40.55391937 -10.84279663 40.57658875 -11.86053467 40.59994507 C-20.00094386 40.57537293 -25.5999835 38.13957282 -31.6328125 32.6953125 C-32.1071875 32.1384375 -32.5815625 31.5815625 -33.0703125 31.0078125 C-31.68494428 27.79101458 -30.15407501 25.98177374 -27.45703125 23.76953125 C-23.01850941 20.01247133 -18.95333716 15.96874194 -14.8828125 11.8203125 C-3.2929852 0.01242636 -3.2929852 0.01242636 0 0 Z " fill="#1A7EC9" transform="translate(141.0703125,114.9921875)"/>
<path d="M0 0 C4.26194853 2.95968648 7.21066348 6.11212577 9 11 C9.55578711 15.21996438 9.51357246 19.39354846 9.4609375 23.64453125 C9.45956284 25.45373299 9.45956284 25.45373299 9.4581604 27.29948425 C9.45213632 29.83861243 9.43642654 32.37773389 9.41162109 34.91674805 C9.37496233 38.8165074 9.37060298 42.71532019 9.37109375 46.61523438 C9.36126803 49.0833416 9.34961342 51.55144236 9.3359375 54.01953125 C9.33371185 55.19030716 9.33148621 56.36108307 9.32919312 57.56733704 C9.31643341 58.64573349 9.30367371 59.72412994 9.29052734 60.83520508 C9.27909195 62.26247673 9.27909195 62.26247673 9.26742554 63.71858215 C9 66 9 66 7 68 C1.70318243 62.79910066 -3.4630811 57.57132773 -8.2890625 51.9296875 C-10.73963898 49.16579531 -13.38041676 46.60995864 -16.01171875 44.01953125 C-18.61925194 41.37101522 -21.04417483 38.5872252 -23.45703125 35.76171875 C-24.91080366 34.10184189 -26.42141586 32.54066019 -28 31 C-26 27 -26 27 -16 17 C-34.315 16.505 -34.315 16.505 -53 16 C-53 15.67 -53 15.34 -53 15 C-51.84588623 15.02731201 -50.69177246 15.05462402 -49.50268555 15.08276367 C-45.17278147 15.17036511 -40.84510198 15.18416636 -36.5144043 15.17700195 C-34.64931728 15.18392818 -32.78418855 15.21020828 -30.91967773 15.25708008 C-18.38937377 15.8176011 -18.38937377 15.8176011 -7.75117493 10.12825012 C-4.79891909 6.97664837 -2.38978414 3.58467621 0 0 Z " fill="#1C7EC9" transform="translate(180,72)"/>
<path d="M0 0 C3.14327666 2.33059188 5.50849497 5.22748279 7.828125 8.35546875 C7.168125 8.68546875 6.508125 9.01546875 5.828125 9.35546875 C4.85840002 13.9396232 4.89186815 16.67418448 5.828125 21.35546875 C-5.391875 21.35546875 -16.611875 21.35546875 -28.171875 21.35546875 C-28.171875 17.39546875 -28.171875 13.43546875 -28.171875 9.35546875 C-29.161875 9.85046875 -29.161875 9.85046875 -30.171875 10.35546875 C-28.57781652 4.33347004 -24.00956241 1.04274235 -18.859375 -2.01953125 C-12.17792525 -3.57335677 -6.04484341 -3.40329599 0 0 Z " fill="#1C467D" transform="translate(157.171875,45.64453125)"/>
<path d="M0 0 C3.12578143 1.6720747 5.39281175 3.7856235 7 7 C7.52999351 10.78566792 7.83021253 14.44856036 5.98828125 17.890625 C3.32073375 21.1910141 1.17212434 22.71038342 -3.05078125 23.2734375 C-7.31853138 23.46508086 -10.1159053 23.41093753 -13.5 20.625 C-17.13542732 16.80780131 -17.39236502 14.44157848 -17.359375 9.328125 C-16.75455722 5.40995764 -14.83123243 3.69641184 -12 1 C-8.27533151 -0.86233425 -4.05504687 -0.57130829 0 0 Z " fill="#0E3A76" transform="translate(96,174)"/>
<path d="M0 0 C2.206875 -0.061875 4.41375 -0.12375 6.6875 -0.1875 C8.54955078 -0.23970703 8.54955078 -0.23970703 10.44921875 -0.29296875 C15.01633432 0.08385597 17.25668101 1.64959536 20.78515625 4.3828125 C22.91561132 7.21885237 22.46121295 10.13558713 22.3515625 13.5546875 C21.84879825 17.05169217 20.65144583 18.70685766 18 21 C12.17480553 23.93310848 6.39098715 23.12911085 0 23 C0 15.41 0 7.82 0 0 Z " fill="#0C3874" transform="translate(135,174)"/>
<path d="M0 0 C13.27983063 -0.61480697 13.27983063 -0.61480697 16.4296875 2.07421875 C18.35961251 5.67002431 18.4699005 8.06153318 18.375 12.125 C18.35566406 13.95417969 18.35566406 13.95417969 18.3359375 15.8203125 C18 19 18 19 16 22 C10.83608171 23.7213061 5.40708764 23.05353552 0 23 C0 15.41 0 7.82 0 0 Z " fill="#0B3773" transform="translate(189,174)"/>
<path d="M0 0 C5.14382793 3.55169071 7.37039436 5.53947178 8.625 11.8125 C-2.595 11.8125 -13.815 11.8125 -25.375 11.8125 C-24.24641124 5.04096745 -24.24641124 5.04096745 -21 2.5 C-20.39414063 2.00886719 -19.78828125 1.51773438 -19.1640625 1.01171875 C-13.73499584 -2.62741545 -5.92364491 -2.08424543 0 0 Z " fill="#ECF5F9" transform="translate(154.375,55.1875)"/>
<path d="M0 0 C1.98 0 3.96 0 6 0 C6 5.61 6 11.22 6 17 C7.98 17 9.96 17 12 17 C12.33 11.39 12.66 5.78 13 0 C14.98 0 16.96 0 19 0 C19.13539281 2.89740622 19.23426829 5.78845621 19.3125 8.6875 C19.35439453 9.50412109 19.39628906 10.32074219 19.43945312 11.16210938 C19.52785854 15.52933701 19.4222183 17.42350963 16.765625 21.05078125 C13.18683549 23.57312018 11.31203533 23.60916595 7.08984375 23.36328125 C4.34710853 22.88650672 2.85065193 22.08198342 1 20 C0.09761253 17.29283758 -0.11851302 15.76223232 -0.09765625 12.98828125 C-0.09443359 12.23095703 -0.09121094 11.47363281 -0.08789062 10.69335938 C-0.07951172 9.90767578 -0.07113281 9.12199219 -0.0625 8.3125 C-0.05798828 7.51521484 -0.05347656 6.71792969 -0.04882812 5.89648438 C-0.0370585 3.93095743 -0.01912348 1.96546915 0 0 Z " fill="#113D77" transform="translate(109,174)"/>
<path d="M0 0 C3.0625 1.25 3.0625 1.25 5 3 C5 4.32 5 5.64 5 7 C3.1875 7.625 3.1875 7.625 1 8 C0.01 7.34 -0.98 6.68 -2 6 C-6.50850182 6.34445598 -6.50850182 6.34445598 -10 9 C-9.64736215 13.50317123 -9.64736215 13.50317123 -7 17 C-3.79981551 16.70368662 -0.79033357 16.21360367 2.3125 15.375 C4 15 4 15 6 16 C5.70488433 18.85278483 5.18767059 19.83578823 3 21.75 C-1.09639574 23.45683156 -4.62760796 23.8452779 -9 23 C-12.06765423 21.27803193 -14.40321354 19.19357293 -16 16 C-16.66767724 11.78149378 -17.08625165 7.73664057 -14.75390625 4.0078125 C-10.32528249 -0.26739473 -5.9742795 -1.12785464 0 0 Z " fill="#0D3975" transform="translate(47,174)"/>
<path d="M0 0 C1.98 0 3.96 0 6 0 C6 5.94 6 11.88 6 18 C8.97 18 11.94 18 15 18 C15 19.65 15 21.3 15 23 C10.05 23 5.1 23 0 23 C0 15.41 0 7.82 0 0 Z " fill="#093673" transform="translate(248,174)"/>
<path d="M0 0 C1.98 0 3.96 0 6 0 C6 5.94 6 11.88 6 18 C8.97 18 11.94 18 15 18 C15 19.65 15 21.3 15 23 C10.05 23 5.1 23 0 23 C0 15.41 0 7.82 0 0 Z " fill="#0A3773" transform="translate(227,174)"/>
<path d="M0 0 C1.65 0 3.3 0 5 0 C5 5.94 5 11.88 5 18 C8.3 18 11.6 18 15 18 C15 19.65 15 21.3 15 23 C10.05 23 5.1 23 0 23 C0 15.41 0 7.82 0 0 Z " fill="#083572" transform="translate(60,174)"/>
<path d="M0 0 C1.98 0 3.96 0 6 0 C6 7.59 6 15.18 6 23 C4.02 23 2.04 23 0 23 C0 15.41 0 7.82 0 0 Z " fill="#0F3B76" transform="translate(213,174)"/>
<path d="M0 0 C2.46432168 1.70648824 4.11276115 3.74336048 5.765625 6.22265625 C5.435625 6.88265625 5.105625 7.54265625 4.765625 8.22265625 C4.17136719 7.86171875 3.57710937 7.50078125 2.96484375 7.12890625 C-3.49780357 3.51062781 -8.84082739 1.98856187 -16.234375 3.22265625 C-19.11418149 4.27156138 -21.63997451 5.60359429 -24.234375 7.22265625 C-25.224375 7.71765625 -25.224375 7.71765625 -26.234375 8.22265625 C-24.603811 2.88626499 -21.74315101 0.57875139 -16.921875 -2.02734375 C-10.50825409 -3.81719145 -5.73390452 -3.1491326 0 0 Z " fill="#E3EDF3" transform="translate(156.234375,48.77734375)"/>
<path d="M0 0 C2 2 2 2 2.375 5.4375 C2 9 2 9 0.3125 10.9375 C-2.41818887 12.19214083 -4.02932151 12.45702746 -7 12 C-8.8125 10.9375 -8.8125 10.9375 -10 9 C-10.4375 5.5 -10.4375 5.5 -10 2 C-7.00303875 -1.6885677 -4.34072074 -1.22672543 0 0 Z " fill="#E7F2F6" transform="translate(95,180)"/>
<path d="M0 0 C6 0 6 0 8.875 1.6875 C11 4 11 4 11.625 6.5 C11 9 11 9 8.875 11.3125 C6 13 6 13 0 13 C0 8.71 0 4.42 0 0 Z " fill="#E5F0F5" transform="translate(141,179)"/>
<path d="M0 0 C0 0.33 0 0.66 0 1 C-4.455 1.495 -4.455 1.495 -9 2 C-9 2.66 -9 3.32 -9 4 C-9.79664063 4.36351562 -9.79664063 4.36351562 -10.609375 4.734375 C-14.79465215 6.72009043 -17.81025234 8.57397474 -21 12 C-21.99 12.33 -22.98 12.66 -24 13 C-22.40594152 6.97800129 -17.83768741 3.6872736 -12.6875 0.625 C-8.48188984 -0.35304887 -4.29687563 -0.15018206 0 0 Z " fill="#1A447D" transform="translate(151,43)"/>
<path d="M0 0 C0 0.66 0 1.32 0 2 C-1.95890881 3.39300182 -3.9639118 4.72245446 -6 6 C-6.99 6.66 -7.98 7.32 -9 8 C-9.33 6.35 -9.66 4.7 -10 3 C-4 0 -4 0 0 0 Z " fill="#17427B" transform="translate(139,53)"/>
<path d="M0 0 C2.31 0 4.62 0 7 0 C6.67 1.32 6.34 2.64 6 4 C4.02 4 2.04 4 0 4 C0 2.68 0 1.36 0 0 Z " fill="#D7E3EC" transform="translate(195,188)"/>
<path d="M0 0 C1.98 0 3.96 0 6 0 C5.67 1.32 5.34 2.64 5 4 C3.35 4 1.7 4 0 4 C0 2.68 0 1.36 0 0 Z " fill="#CAD9E5" transform="translate(195,179)"/>
<path d="M0 0 C0.90105469 0.00902344 1.80210937 0.01804688 2.73046875 0.02734375 C3.41753906 0.03894531 4.10460937 0.05054688 4.8125 0.0625 C4.8125 0.3925 4.8125 0.7225 4.8125 1.0625 C0.3575 1.5575 0.3575 1.5575 -4.1875 2.0625 C-4.1875 2.7225 -4.1875 3.3825 -4.1875 4.0625 C-5.8375 4.0625 -7.4875 4.0625 -9.1875 4.0625 C-8.8575 3.0725 -8.5275 2.0825 -8.1875 1.0625 C-5.17259443 0.05753148 -3.14568308 -0.04085303 0 0 Z " fill="#385E8E" transform="translate(146.1875,42.9375)"/>
<path d="M0 0 C1.32 0 2.64 0 4 0 C4 1.32 4 2.64 4 4 C2.35 3.67 0.7 3.34 -1 3 C-0.67 2.01 -0.34 1.02 0 0 Z " fill="#E0EBF2" transform="translate(125,75)"/>
<path d="M0 0 C3.125 0.375 3.125 0.375 6 1 C5.67 1.99 5.34 2.98 5 4 C2.69 3.34 0.38 2.68 -2 2 C-1.34 1.34 -0.68 0.68 0 0 Z " fill="#1B457D" transform="translate(152,45)"/>
<path d="M0 0 C0.66 0.33 1.32 0.66 2 1 C0.54744301 4.82946843 -1.42895561 6.12050295 -5 8 C-3.8141763 4.62496331 -2.72426311 2.35277269 0 0 Z " fill="#BFD0DE" transform="translate(135,49)"/>
</svg>
